<?xml version="1.0" encoding="UTF-8" standalone="no"?>
<!-- Created with Inkscape (http://www.inkscape.org/) -->

<svg
   width="297mm"
   height="210mm"
   viewBox="0 0 297 210"
   version="1.1"
   id="svg1"
   inkscape:version="1.3.2 (091e20e, 2023-11-25)"
   sodipodi:docname="motorapa_cruiser.svg"
   xmlns:inkscape="http://www.inkscape.org/namespaces/inkscape"
   xmlns:sodipodi="http://sodipodi.sourceforge.net/DTD/sodipodi-0.dtd"
   xmlns="http://www.w3.org/2000/svg"
   xmlns:svg="http://www.w3.org/2000/svg">
  <sodipodi:namedview
     id="namedview1"
     pagecolor="#ffffff"
     bordercolor="#000000"
     borderopacity="0.25"
     inkscape:showpageshadow="2"
     inkscape:pageopacity="0.0"
     inkscape:pagecheckerboard="0"
     inkscape:deskcolor="#d1d1d1"
     inkscape:document-units="mm"
     showgrid="false"
     inkscape:zoom="0.82106903"
     inkscape:cx="565.11692"
     inkscape:cy="425.66457"
     inkscape:window-width="1440"
     inkscape:window-height="766"
     inkscape:window-x="609"
     inkscape:window-y="1105"
     inkscape:window-maximized="0"
     inkscape:current-layer="layer1"
     showguides="true">
    <inkscape:grid
       id="grid1"
       units="mm"
       originx="0"
       originy="0"
       spacingx="1"
       spacingy="0.99999998"
       empcolor="#0099e5"
       empopacity="0.30196078"
       color="#0099e5"
       opacity="0.14901961"
       empspacing="5"
       dotted="false"
       gridanglex="30"
       gridanglez="30"
       visible="false" />
    <sodipodi:guide
       position="243.97613,15.13424"
       orientation="0,-1"
       id="guide7"
       inkscape:locked="false" />
  </sodipodi:namedview>
  <defs
     id="defs1">
    <inkscape:path-effect
       effect="fillet_chamfer"
       id="path-effect3"
       is_visible="true"
       lpeversion="1"
       nodesatellites_param="F,0,1,1,0,13.653139,0,1 @ F,0,0,1,0,0,0,1 @ F,0,0,1,0,4.5546509,0,1 @ F,0,1,1,0,13.653139,0,1"
       radius="0"
       unit="px"
       method="auto"
       mode="F"
       chamfer_steps="1"
       flexible="false"
       use_knot_distance="true"
       apply_no_radius="true"
       apply_with_radius="true"
       only_selected="false"
       hide_knots="false" />
  </defs>
  <g
     inkscape:label="Layer 1"
     inkscape:groupmode="layer"
     id="layer1">
    <circle
       style="opacity:0.95;fill:none;fill-rule:evenodd;stroke:#1a1a1a;stroke-width:8.82726;stroke-dasharray:none;stroke-opacity:1"
       id="path1"
       cx="82.680656"
       cy="156.21492"
       r="25.010599" />
    <circle
       style="opacity:0.95;fill:none;fill-rule:evenodd;stroke:#1a1a1a;stroke-width:8.82726;stroke-dasharray:none;stroke-opacity:1"
       id="path1-7"
       cx="236.98033"
       cy="156.32437"
       r="25.010599" />
    <path
       style="opacity:0.95;fill:none;fill-rule:evenodd;stroke:#1a1a1a;stroke-width:5.45042;stroke-linecap:round;stroke-linejoin:round;stroke-dasharray:none;stroke-opacity:1"
       d="M 82.632357,156.52063 C 100.61851,124.61 100.61851,124.61 100.61851,124.61"
       id="path2-1" />
    <path
       style="opacity:0.95;fill:none;fill-rule:evenodd;stroke:#1a1a1a;stroke-width:4.06272;stroke-linecap:round;stroke-linejoin:round;stroke-dasharray:none;stroke-opacity:1"
       d="M 192.18695,79.978006 C 181.39418,78.914387 181.39418,78.914387 181.39418,78.914387"
       id="path2-2" />
    <path
       id="rect3-7"
       style="opacity:0.95;fill:none;fill-rule:evenodd;stroke:#1a1a1a;stroke-width:3.2;stroke-linecap:round;stroke-linejoin:round;stroke-dasharray:none"
       d="m 173.50282,119.54269 c 8.67134,-0.57642 15.99897,2.51614 21.35444,10.99349 l -13.43431,14.54483 -12.62464,-6.4993 z"
       sodipodi:nodetypes="ccccc" />
    <path
       id="rect3-7-3"
       style="opacity:0.95;fill:none;fill-rule:evenodd;stroke:#1a1a1a;stroke-width:3.2;stroke-linecap:round;stroke-linejoin:round;stroke-dasharray:none"
       d="m 160.25242,119.54269 c -8.67134,-0.57642 -15.99897,2.51614 -21.35444,10.99349 l 13.43431,14.54483 12.62464,-6.4993 z"
       sodipodi:nodetypes="ccccc" />
    <path
       id="rect3-8"
       style="opacity:0.95;fill:#f9f9f9;fill-rule:evenodd;stroke:#1a1a1a;stroke-width:3.51296;stroke-linecap:round;stroke-linejoin:round;stroke-dasharray:none"
       d="m 134.31726,138.92396 h 50.77684 l -4.47345,17.92608 -41.08469,0.1209 z"
       sodipodi:nodetypes="ccccc" />
    <path
       id="rect3-5"
       style="opacity:0.95;fill:none;fill-rule:evenodd;stroke:#1a1a1a;stroke-width:3.85223;stroke-linecap:round;stroke-linejoin:round;stroke-dasharray:none"
       d="m 120.95508,120.07784 83.80131,-12.12242 -19.89696,52.98866 -60.08356,0.3477 c -6.91268,-16.388 -18.98166,-28.39782 -3.82079,-41.21394 z"
       sodipodi:nodetypes="ccccc" />
    <path
       id="rect4"
       style="opacity:0.95;fill:#f9f9f9;fill-rule:evenodd;stroke:#1a1a1a;stroke-width:2.45936;stroke-linecap:round;stroke-linejoin:round"
       d="m 141.32917,108.20595 39.83444,-19.161259 c 10.10161,0.01273 11.64856,13.077609 11.63616,20.367359 l -52.54283,7.22363 c -0.88457,-7.92674 -1.67486,-1.39098 1.07223,-8.42973 z"
       sodipodi:nodetypes="ccccc" />
    <rect
       style="opacity:0.95;fill:#f9f9f9;fill-rule:evenodd;stroke:#1a1a1a;stroke-width:1.70041;stroke-linecap:round;stroke-linejoin:round;stroke-dasharray:none;stroke-opacity:1"
       id="rect5"
       width="27.751518"
       height="9.1701708"
       x="63.905964"
       y="104.93829"
       ry="4.9839087"
       rx="2.1552124" />
    <path
       style="opacity:0.95;fill:#f9f9f9;fill-rule:evenodd;stroke:#1a1a1a;stroke-width:3.04846;stroke-linecap:round;stroke-linejoin:round;stroke-dasharray:none;stroke-opacity:1"
       id="path5"
       sodipodi:type="arc"
       sodipodi:cx="-94.126007"
       sodipodi:cy="-218.05186"
       sodipodi:rx="8.7877092"
       sodipodi:ry="11.77147"
       sodipodi:start="0"
       sodipodi:end="3.1415927"
       sodipodi:open="true"
       sodipodi:arc-type="arc"
       d="m -85.338298,-218.05186 a 8.7877092,11.77147 0 0 1 -4.393855,10.19439 8.7877092,11.77147 0 0 1 -8.787709,0 8.7877092,11.77147 0 0 1 -4.393858,-10.19439"
       transform="matrix(0,-1,-1,0,0,0)" />
    <path
       style="opacity:0.95;fill:#f9f9f9;fill-rule:evenodd;stroke:#1a1a1a;stroke-width:3.7975;stroke-linecap:round;stroke-linejoin:round;stroke-dasharray:none;stroke-opacity:1"
       d="m 218.84117,85.886785 c 0.43568,16.978845 0,16.224235 0,16.224235"
       id="path6" />
    <path
       style="opacity:0.95;fill:none;fill-rule:evenodd;stroke:#050505;stroke-width:3.005;stroke-linecap:round;stroke-linejoin:round;stroke-dasharray:none;stroke-opacity:1"
       d="m 183.12475,131.77882 5.33137,-0.18728 -13.64831,34.08504 -73.35966,0.18727 h -7.463922"
       id="path7"
       sodipodi:nodetypes="ccccc" />
    <path
       style="opacity:0.95;fill:none;fill-rule:evenodd;stroke:#050505;stroke-width:3.005;stroke-linecap:round;stroke-linejoin:round;stroke-dasharray:none;stroke-opacity:1"
       d="m 155.24043,132.1377 5.33137,-0.18728 -13.64831,34.08504 c -18.13112,-0.19181 -36.28124,0.68256 -54.39969,-0.13497"
       id="path7-8"
       sodipodi:nodetypes="cccc" />
    <rect
       style="opacity:0.95;fill:#f9f9f9;fill-rule:evenodd;stroke:#1a1a1a;stroke-width:1.60223;stroke-linecap:round;stroke-linejoin:round;stroke-dasharray:none;stroke-opacity:1"
       id="rect5-8"
       width="73.754761"
       height="5.1213541"
       x="70.59182"
       y="163.24316"
       ry="0"
       rx="0" />
    <path
       style="opacity:0.95;fill:none;fill-rule:evenodd;stroke:#1a1a1a;stroke-width:7.33621;stroke-linecap:round;stroke-linejoin:round;stroke-dasharray:none;stroke-opacity:1"
       d="M 235.43206,153.84966 C 193.3251,80.255667 193.3251,80.255667 193.3251,80.255667"
       id="path2" />
    <path
       style="opacity:0.95;fill:none;fill-rule:evenodd;stroke:#1a1a1a;stroke-width:3.2;stroke-linecap:round;stroke-linejoin:round;stroke-opacity:1"
       d="M 65.976117,106.47243 34.943563,107.43842 26.890877,94.2857 a 1.057491,1.057491 135.45192 0 1 1.468213,-1.445233 63.296037,63.296037 20.182185 0 0 23.887208,8.780353 l 13.898281,2.24738 a 1.3108353,1.3108353 93.701195 0 1 -0.168462,2.60423 z"
       id="path3"
       sodipodi:nodetypes="ccccc"
       inkscape:path-effect="#path-effect3"
       inkscape:original-d="M 79.622646,106.04763 34.943563,107.43842 24.512648,90.40126 38.768231,99.441384 Z"
       transform="matrix(1.0275417,-0.09490892,-0.15660491,0.98766133,81.406543,15.30586)" />
    <path
       style="opacity:0.95;fill:none;fill-rule:evenodd;stroke:#1a1a1a;stroke-width:3.68488;stroke-linecap:round;stroke-linejoin:round;stroke-opacity:1"
       d="m 45.095367,145.79036 c 0,0 3.265687,0.62194 4.14032,-1.43997 6.780484,-15.98467 18.858565,-24.90516 31.395731,-24.76184 12.444284,0.14225 32.301572,12.99612 32.301572,12.99612"
       id="path4"
       sodipodi:nodetypes="cssc" />
    <path
       style="opacity:0.95;fill:none;fill-rule:evenodd;stroke:#1a1a1a;stroke-width:3.68488;stroke-linecap:round;stroke-linejoin:round;stroke-opacity:1"
       d="m 198.75809,156.44982 c 0,0 3.32341,-0.0803 3.74386,-2.28019 3.25944,-17.05464 13.439,-27.30001 25.47206,-30.82231 23.75747,-6.95426 37.50965,14.60537 37.50965,14.60537"
       id="path4-6"
       sodipodi:nodetypes="cssc" />
  </g>
</svg>
