<?xml version="1.0" encoding="UTF-8" standalone="no"?>
<!-- Created with Inkscape (http://www.inkscape.org/) -->

<svg
   width="297mm"
   height="210mm"
   viewBox="0 0 297 210"
   version="1.1"
   id="svg1"
   inkscape:version="1.3.2 (091e20e, 2023-11-25)"
   sodipodi:docname="motorapa_off_road.svg"
   xmlns:inkscape="http://www.inkscape.org/namespaces/inkscape"
   xmlns:sodipodi="http://sodipodi.sourceforge.net/DTD/sodipodi-0.dtd"
   xmlns="http://www.w3.org/2000/svg"
   xmlns:svg="http://www.w3.org/2000/svg">
  <sodipodi:namedview
     id="namedview1"
     pagecolor="#ffffff"
     bordercolor="#000000"
     borderopacity="0.25"
     inkscape:showpageshadow="2"
     inkscape:pageopacity="0.0"
     inkscape:pagecheckerboard="0"
     inkscape:deskcolor="#d1d1d1"
     inkscape:document-units="mm"
     showgrid="false"
     inkscape:zoom="1.161167"
     inkscape:cx="561.50409"
     inkscape:cy="452.56196"
     inkscape:window-width="1440"
     inkscape:window-height="766"
     inkscape:window-x="609"
     inkscape:window-y="1105"
     inkscape:window-maximized="0"
     inkscape:current-layer="layer1"
     showguides="false">
    <inkscape:grid
       id="grid1"
       units="mm"
       originx="0"
       originy="0"
       spacingx="1"
       spacingy="0.99999998"
       empcolor="#0099e5"
       empopacity="0.30196078"
       color="#0099e5"
       opacity="0.14901961"
       empspacing="5"
       dotted="false"
       gridanglex="30"
       gridanglez="30"
       visible="false" />
    <sodipodi:guide
       position="243.97613,15.13424"
       orientation="0,-1"
       id="guide7"
       inkscape:locked="false" />
  </sodipodi:namedview>
  <defs
     id="defs1">
    <inkscape:path-effect
       effect="fillet_chamfer"
       id="path-effect3"
       is_visible="true"
       lpeversion="1"
       nodesatellites_param="F,0,1,1,0,13.653139,0,1 @ F,0,0,1,0,0,0,1 @ F,0,0,1,0,4.5546509,0,1 @ F,0,1,1,0,13.653139,0,1"
       radius="0"
       unit="px"
       method="auto"
       mode="F"
       chamfer_steps="1"
       flexible="false"
       use_knot_distance="true"
       apply_no_radius="true"
       apply_with_radius="true"
       only_selected="false"
       hide_knots="false" />
  </defs>
  <g
     inkscape:label="Layer 1"
     inkscape:groupmode="layer"
     id="layer1">
    <circle
       style="opacity:0.95;fill:none;fill-rule:evenodd;stroke:#1a1a1a;stroke-width:8.82726;stroke-dasharray:none;stroke-opacity:1"
       id="path1"
       cx="94.851501"
       cy="156.21492"
       r="25.010599" />
    <ellipse
       style="opacity:0.95;fill:none;fill-rule:evenodd;stroke:#1a1a1a;stroke-width:9.66377;stroke-dasharray:none;stroke-opacity:1"
       id="path1-7"
       cx="234.5878"
       cy="153.13434"
       rx="26.984871"
       ry="27.782381" />
    <path
       style="opacity:0.95;fill:none;fill-rule:evenodd;stroke:#1a1a1a;stroke-width:5.45042;stroke-linecap:round;stroke-linejoin:round;stroke-dasharray:none;stroke-opacity:1"
       d="M 94.803198,156.52063 115.52374,121.1921"
       id="path2-1"
       sodipodi:nodetypes="cc" />
    <path
       style="opacity:0.95;fill:#f9f9f9;fill-rule:evenodd;stroke:#1a1a1a;stroke-width:3.80707;stroke-linecap:round;stroke-linejoin:round;stroke-opacity:1"
       d="m 127.21783,130.69277 c -3.90982,-2.31372 0.48087,-8.62269 -50.886949,-26.18763 37.049409,5.71527 111.982349,-4.879252 123.461189,-8.139417 9.26446,-2.631249 -38.73286,26.171227 -72.57424,34.327047 z"
       id="path6"
       sodipodi:nodetypes="ccsc" />
    <path
       style="opacity:0.95;fill:none;fill-rule:evenodd;stroke:#1a1a1a;stroke-width:4.06272;stroke-linecap:round;stroke-linejoin:round;stroke-dasharray:none;stroke-opacity:1"
       d="M 195.73162,84.811643 C 184.93885,83.748024 184.93885,83.748024 184.93885,83.748024"
       id="path2-2" />
    <path
       style="opacity:0.95;fill:none;fill-rule:evenodd;stroke:#050505;stroke-width:2.77154;stroke-linecap:round;stroke-linejoin:round;stroke-dasharray:none;stroke-opacity:1"
       d="M 144.01274,152.66798 77.377456,118.08869 70.60189,114.55478"
       id="path7"
       sodipodi:nodetypes="ccc" />
    <rect
       style="opacity:0.95;fill:#f9f9f9;fill-rule:evenodd;stroke:#1a1a1a;stroke-width:2.33187;stroke-linecap:round;stroke-linejoin:round;stroke-dasharray:none;stroke-opacity:1"
       id="rect5-8"
       width="51.020554"
       height="11.814339"
       x="132.97725"
       y="65.234161"
       ry="0"
       rx="0"
       transform="matrix(0.89113717,0.453734,-0.59477541,0.80389192,0,0)" />
    <path
       style="display:inline;opacity:0.95;fill:none;fill-rule:evenodd;stroke:#1a1a1a;stroke-width:8.16523;stroke-linecap:round;stroke-linejoin:round;stroke-dasharray:none;stroke-opacity:1"
       d="M 235.01755,153.43515 197.60652,87.437272"
       id="path2"
       sodipodi:nodetypes="cc" />
    <path
       id="rect3-5"
       style="opacity:0.95;fill:#f9f9f9;fill-rule:evenodd;stroke:#1a1a1a;stroke-width:3.66792;stroke-linecap:round;stroke-linejoin:round;stroke-dasharray:none"
       d="m 178.98237,246.7475 73.39656,-24.02704 c 5.15927,-9.5555 4.2659,-20.9268 0.86677,-33.04982 15.02689,9.22823 32.11526,34.5577 33.91046,48.8039 -19.14054,1.32319 -26.59654,12.05792 -35.82095,22.67525 -3.82264,8.3119 -7.3842,12.75689 -4.5664,25.25794 -26.71746,-5.13376 -46.64897,-5.27801 -71.03499,-0.94258 8.61415,-17.06848 -6.09438,-25.55152 3.24855,-38.71765 z"
       sodipodi:nodetypes="cccccccc" />
    <path
       style="opacity:0.95;fill:#f9f9f9;fill-rule:evenodd;stroke:#1a1a1a;stroke-width:3.2;stroke-linecap:round;stroke-linejoin:round;stroke-opacity:1"
       d="m 42.581468,242.25348 c -20.09375,-0.60013 -34.2985094,26.72185 -25.71503,37.14478"
       id="path8"
       sodipodi:nodetypes="cc" />
    <path
       style="opacity:0.95;fill:none;fill-rule:evenodd;stroke:#050505;stroke-width:3.2;stroke-linecap:round;stroke-linejoin:round;stroke-dasharray:none;stroke-opacity:1"
       d="m 125.46505,217.25684 5.32037,-0.21281 -13.62014,38.73226 -73.208225,0.21281 h -7.448512"
       id="path7-1"
       sodipodi:nodetypes="ccccc" />
    <rect
       style="opacity:0.95;fill:#f9f9f9;fill-rule:evenodd;stroke:#1a1a1a;stroke-width:1.60223;stroke-linecap:round;stroke-linejoin:round;stroke-dasharray:none;stroke-opacity:1"
       id="rect5-8-7"
       width="31.218765"
       height="6.7325611"
       x="36.390156"
       y="252.48898"
       ry="0"
       rx="0" />
    <path
       id="rect3"
       style="opacity:0.95;fill:none;fill-rule:evenodd;stroke:#1a1a1a;stroke-width:3.6823;stroke-linecap:round;stroke-linejoin:round;stroke-dasharray:none"
       d="m 179.93134,122.8163 c 9.14669,-2.50054 16.56262,-0.0343 21.43835,9.72167 l -10.80874,18.37628 -20.8772,-0.50662 z"
       sodipodi:nodetypes="ccccc" />
    <path
       id="rect3-8"
       style="opacity:0.95;fill:none;fill-rule:evenodd;stroke:#1a1a1a;stroke-width:3.2;stroke-linecap:round;stroke-linejoin:round;stroke-dasharray:none"
       d="m 143.98249,150.72887 h 51.0898 l -4.50102,14.78327 -41.33791,0.0997 z"
       sodipodi:nodetypes="ccccc" />
    <path
       style="opacity:0.95;fill:#f9f9f9;fill-rule:evenodd;stroke:#1a1a1a;stroke-width:3.04846;stroke-linecap:round;stroke-linejoin:round;stroke-dasharray:none;stroke-opacity:1"
       id="path5-2"
       sodipodi:type="arc"
       sodipodi:cx="-217.74527"
       sodipodi:cy="-240.26767"
       sodipodi:rx="8.7877092"
       sodipodi:ry="11.77147"
       sodipodi:start="0"
       sodipodi:end="3.1415927"
       sodipodi:open="true"
       sodipodi:arc-type="arc"
       d="m -208.95756,-240.26767 a 8.7877092,11.77147 0 0 1 -4.39386,10.19439 8.7877092,11.77147 0 0 1 -8.7877,0 8.7877092,11.77147 0 0 1 -4.39386,-10.19439"
       transform="matrix(0,-1,-1,0,0,0)" />
    <path
       style="opacity:0.95;fill:#f9f9f9;fill-rule:evenodd;stroke:#1a1a1a;stroke-width:3.7975;stroke-linecap:round;stroke-linejoin:round;stroke-dasharray:none;stroke-opacity:1"
       d="m 241.05698,209.50605 c 0.43568,16.97885 0,16.22424 0,16.22424"
       id="path6-6" />
    <path
       style="opacity:0.95;fill:#f9f9f9;fill-rule:evenodd;stroke:#1a1a1a;stroke-width:3.2;stroke-linecap:round;stroke-linejoin:round;stroke-opacity:1"
       d="m 203.02313,65.395776 c 13.25913,8.027226 25.26871,25.10413 19.14022,41.014764 l -18.68451,4.10149 -10.36762,5.81042 -22.89992,-2.39253 40.78692,-19.823801 z"
       id="path9"
       sodipodi:nodetypes="ccccccc" />
    <path
       style="opacity:0.95;fill:#f9f9f9;fill-rule:evenodd;stroke:#1a1a1a;stroke-width:3.2;stroke-linecap:round;stroke-linejoin:round;stroke-opacity:1"
       d="m 88.865342,156.53972 c -1.192421,-4.70258 37.510218,-2.41025 55.369938,-6.15222 l 3.19004,11.62085 c -18.47562,-0.81651 -60.914471,-1.59507 -58.559978,-5.46863 z"
       id="path10"
       sodipodi:nodetypes="cccc" />
    <path
       style="opacity:0.95;fill:#f9f9f9;fill-rule:evenodd;stroke:#1a1a1a;stroke-width:3.2;stroke-linecap:round;stroke-linejoin:round;stroke-opacity:1"
       d="m 203.93457,136.94377 c 0,0 5.37088,-20.25934 16.63377,-24.83672 17.78419,-7.22771 32.12822,2.73431 32.12822,2.73431 0,0 -12.47542,-2.5085 -28.93819,3.19004 -10.45552,3.61915 -19.8238,18.91237 -19.8238,18.91237 z"
       id="path11"
       sodipodi:nodetypes="cscsc" />
  </g>
</svg>
