<?xml version="1.0" encoding="UTF-8" standalone="no"?>
<!-- Created with Inkscape (http://www.inkscape.org/) -->

<svg
   width="297mm"
   height="210mm"
   viewBox="0 0 297 210"
   version="1.1"
   id="svg1"
   inkscape:version="1.3.2 (091e20e, 2023-11-25)"
   sodipodi:docname="motorapa_underbone.svg"
   xmlns:inkscape="http://www.inkscape.org/namespaces/inkscape"
   xmlns:sodipodi="http://sodipodi.sourceforge.net/DTD/sodipodi-0.dtd"
   xmlns="http://www.w3.org/2000/svg"
   xmlns:svg="http://www.w3.org/2000/svg">
  <sodipodi:namedview
     id="namedview1"
     pagecolor="#ffffff"
     bordercolor="#000000"
     borderopacity="0.25"
     inkscape:showpageshadow="2"
     inkscape:pageopacity="0.0"
     inkscape:pagecheckerboard="0"
     inkscape:deskcolor="#d1d1d1"
     inkscape:document-units="mm"
     showgrid="false"
     inkscape:zoom="1.4254587"
     inkscape:cx="455.99357"
     inkscape:cy="425.82784"
     inkscape:window-width="2560"
     inkscape:window-height="1027"
     inkscape:window-x="0"
     inkscape:window-y="25"
     inkscape:window-maximized="1"
     inkscape:current-layer="layer1"
     showguides="true">
    <inkscape:grid
       id="grid1"
       units="mm"
       originx="0"
       originy="0"
       spacingx="1"
       spacingy="0.99999998"
       empcolor="#0099e5"
       empopacity="0.30196078"
       color="#0099e5"
       opacity="0.14901961"
       empspacing="5"
       dotted="false"
       gridanglex="30"
       gridanglez="30"
       visible="false" />
    <sodipodi:guide
       position="243.97613,15.13424"
       orientation="0,-1"
       id="guide7"
       inkscape:locked="false" />
  </sodipodi:namedview>
  <defs
     id="defs1" />
  <g
     inkscape:label="Layer 1"
     inkscape:groupmode="layer"
     id="layer1">
    <circle
       style="opacity:0.95;fill:none;fill-rule:evenodd;stroke:#1a1a1a;stroke-width:8.82726;stroke-dasharray:none;stroke-opacity:1"
       id="path1"
       cx="82.680656"
       cy="156.21492"
       r="25.010599" />
    <circle
       style="opacity:0.95;fill:none;fill-rule:evenodd;stroke:#1a1a1a;stroke-width:8.82726;stroke-dasharray:none;stroke-opacity:1"
       id="path1-7"
       cx="220.57639"
       cy="156.32437"
       r="25.010599" />
    <path
       style="opacity:0.95;fill:none;fill-rule:evenodd;stroke:#1a1a1a;stroke-width:6.03783;stroke-linecap:round;stroke-linejoin:round;stroke-dasharray:none;stroke-opacity:1"
       d="m 82.92606,156.22693 c 19.99733,-35.2211 19.99733,-35.2211 19.99733,-35.2211"
       id="path2-1" />
    <path
       id="rect3"
       style="opacity:0.95;fill:none;fill-rule:evenodd;stroke:#1a1a1a;stroke-width:3.2;stroke-linecap:round;stroke-linejoin:round;stroke-dasharray:none"
       d="m 160.19306,125.96151 c 8.47935,1.904 14.63052,6.94593 17.36472,16.59324 l -17.00472,10.1426 -10.26593,-9.80984 z"
       sodipodi:nodetypes="ccccc" />
    <path
       id="rect3-8"
       style="opacity:0.95;fill:none;fill-rule:evenodd;stroke:#1a1a1a;stroke-width:2.9343;stroke-linecap:round;stroke-linejoin:round;stroke-dasharray:none"
       d="m 120.46776,141.7639 h 42.20445 l -3.71822,15.04719 -34.14857,0.10148 z"
       sodipodi:nodetypes="ccccc" />
    <path
       style="opacity:0.95;fill:none;fill-rule:evenodd;stroke:#050505;stroke-width:3.2;stroke-linecap:round;stroke-linejoin:round;stroke-dasharray:none;stroke-opacity:1"
       d="m 171.74141,128.32722 5.32037,-0.21281 -15.74829,38.73226 -39.3707,0.21281 -26.389019,-19.79176"
       id="path7"
       sodipodi:nodetypes="ccccc" />
    <rect
       style="opacity:0.95;fill:#f9f9f9;fill-rule:evenodd;stroke:#1a1a1a;stroke-width:1.60223;stroke-linecap:round;stroke-linejoin:round;stroke-dasharray:none;stroke-opacity:1"
       id="rect5-8"
       width="30.517937"
       height="9.6717091"
       x="141.70007"
       y="78.628761"
       ry="0"
       rx="0"
       transform="rotate(29.098952)" />
    <path
       style="opacity:0.95;fill:none;fill-rule:evenodd;stroke:#1a1a1a;stroke-width:6.54075;stroke-linecap:round;stroke-linejoin:round;stroke-dasharray:none;stroke-opacity:1"
       d="M 220.47012,157.37667 C 188.69401,79.857935 188.69401,79.857935 188.69401,79.857935"
       id="path2" />
    <path
       style="opacity:0.95;fill:#f9f9f9;fill-rule:evenodd;stroke:#1a1a1a;stroke-width:3.70001;stroke-linecap:round;stroke-linejoin:round"
       d="m 68.313497,101.29977 0.212817,9.36384 41.073226,8.51259 6.59724,15.53547 10.74714,28.41075 50.11785,-14.36499 13.19451,-29.1556 2.34097,-10.42793 c -13.27947,8.33479 -32.54612,11.52508 -50.43707,12.34326 l -7.44851,-9.36385 z"
       id="path8"
       sodipodi:nodetypes="ccccccccccc" />
    <path
       style="opacity:0.95;fill:#f9f9f9;fill-rule:evenodd;stroke:#1a1a1a;stroke-width:3.70001;stroke-linecap:round;stroke-linejoin:round"
       d="m 185.99999,151.94965 c 9.25001,-26.29427 27.77277,-35.17243 61.29061,-22.34554 -3.91537,-10.24272 -16.23328,-19.46468 -42.98855,-13.1945 -18.96201,8.77891 -17.29391,24.04923 -18.30206,35.54004 z"
       id="path3"
       sodipodi:nodetypes="cccc" />
    <path
       style="opacity:0.95;fill:#f9f9f9;fill-rule:evenodd;stroke:#1a1a1a;stroke-width:3.70001;stroke-linecap:round;stroke-linejoin:round"
       d="m 186.42563,98.320362 15.53547,-7.874141 20.00457,23.409609 c -28.4723,-4.00196 -35.33371,30.63372 -45.96796,58.52403 l -4.89474,-41.92448 19.15331,-23.1968 z"
       id="path4"
       sodipodi:nodetypes="ccccccc" />
    <path
       style="opacity:0.95;fill:#f9f9f9;fill-rule:evenodd;stroke:#1a1a1a;stroke-width:3.70001;stroke-linecap:round;stroke-linejoin:round"
       d="m 178.07624,74.411516 20.3854,-10.04709 c 9.84672,3.526409 8.23181,10.873356 9.79427,17.161179 l -10.38791,2.060942 2.39057,3.667452 -13.81055,5.926808 z"
       id="path9"
       sodipodi:nodetypes="ccccccc" />
    <path
       style="opacity:0.95;fill:none;fill-rule:evenodd;stroke:#1a1a1a;stroke-width:4.06272;stroke-linecap:round;stroke-linejoin:round;stroke-dasharray:none;stroke-opacity:1"
       d="M 187.95359,79.978006 C 177.16082,78.914387 177.16082,78.914387 177.16082,78.914387"
       id="path2-2" />
    <path
       style="opacity:0.95;fill:#f9f9f9;fill-rule:evenodd;stroke:#1a1a1a;stroke-width:3.70001;stroke-linecap:round;stroke-linejoin:round"
       d="m 67.191821,90.764642 15.591471,8.909413 40.463588,6.125215 3.89787,5.19716 7.79573,0.74246 c -1.2433,-5.45528 2.72823,-10.62085 -6.49645,-16.519542 L 100.23089,92.806383 96.147412,90.57903 Z"
       id="path10"
       sodipodi:nodetypes="ccccccccc" />
  </g>
</svg>
