<?xml version="1.0" encoding="UTF-8" standalone="no"?>
<!-- Created with Inkscape (http://www.inkscape.org/) -->

<svg
   width="297mm"
   height="210mm"
   viewBox="0 0 297 210"
   version="1.1"
   id="svg1"
   inkscape:version="1.3.2 (091e20e, 2023-11-25)"
   sodipodi:docname="motorapa_scooter.svg"
   xmlns:inkscape="http://www.inkscape.org/namespaces/inkscape"
   xmlns:sodipodi="http://sodipodi.sourceforge.net/DTD/sodipodi-0.dtd"
   xmlns="http://www.w3.org/2000/svg"
   xmlns:svg="http://www.w3.org/2000/svg">
  <sodipodi:namedview
     id="namedview1"
     pagecolor="#ffffff"
     bordercolor="#000000"
     borderopacity="0.25"
     inkscape:showpageshadow="2"
     inkscape:pageopacity="0.0"
     inkscape:pagecheckerboard="0"
     inkscape:deskcolor="#d1d1d1"
     inkscape:document-units="mm"
     showgrid="false"
     inkscape:zoom="0.94316065"
     inkscape:cx="589.50721"
     inkscape:cy="425.6963"
     inkscape:window-width="1440"
     inkscape:window-height="766"
     inkscape:window-x="609"
     inkscape:window-y="1105"
     inkscape:window-maximized="0"
     inkscape:current-layer="layer1"
     showguides="true">
    <inkscape:grid
       id="grid1"
       units="mm"
       originx="0"
       originy="0"
       spacingx="1"
       spacingy="0.99999998"
       empcolor="#0099e5"
       empopacity="0.30196078"
       color="#0099e5"
       opacity="0.14901961"
       empspacing="5"
       dotted="false"
       gridanglex="30"
       gridanglez="30"
       visible="false" />
    <sodipodi:guide
       position="243.97613,15.13424"
       orientation="0,-1"
       id="guide7"
       inkscape:locked="false" />
    <sodipodi:guide
       position="222.94736,76.036016"
       orientation="0,-1"
       id="guide1"
       inkscape:locked="false" />
    <sodipodi:guide
       position="204.78572,26.814965"
       orientation="0,-1"
       id="guide2"
       inkscape:locked="false" />
  </sodipodi:namedview>
  <defs
     id="defs1" />
  <g
     inkscape:label="Layer 1"
     inkscape:groupmode="layer"
     id="layer1">
    <ellipse
       style="opacity:0.95;fill:none;fill-rule:evenodd;stroke:#1a1a1a;stroke-width:9.01665;stroke-dasharray:none;stroke-opacity:1"
       id="path1"
       cx="85.962837"
       cy="158.37498"
       rx="19.928179"
       ry="19.928181" />
    <ellipse
       style="opacity:0.95;fill:none;fill-rule:evenodd;stroke:#1a1a1a;stroke-width:8.97982;stroke-dasharray:none;stroke-opacity:1"
       id="path1-7"
       cx="221.59561"
       cy="158.69684"
       rx="20.502441"
       ry="19.941385" />
    <path
       style="opacity:0.95;fill:none;fill-rule:evenodd;stroke:#1a1a1a;stroke-width:5.45042;stroke-linecap:round;stroke-linejoin:round;stroke-dasharray:none;stroke-opacity:1"
       d="M 91.048209,155.67904 C 109.03436,123.76841 109.03436,123.76841 109.03436,123.76841"
       id="path2-1" />
    <path
       style="opacity:0.95;fill:none;fill-rule:evenodd;stroke:#1a1a1a;stroke-width:4.06272;stroke-linecap:round;stroke-linejoin:round;stroke-dasharray:none;stroke-opacity:1"
       d="M 189.10114,87.832801 C 178.30837,86.769182 178.30837,86.769182 178.30837,86.769182"
       id="path2-2" />
    <path
       style="opacity:0.95;fill:#f9f9f9;fill-rule:evenodd;stroke:#1a1a1a;stroke-width:2.02088;stroke-linecap:round;stroke-linejoin:round;stroke-dasharray:none"
       id="path4"
       sodipodi:type="arc"
       sodipodi:cx="115.57763"
       sodipodi:cy="150.64365"
       sodipodi:rx="7.5723133"
       sodipodi:ry="7.2918768"
       sodipodi:start="0"
       sodipodi:end="6.1390667"
       sodipodi:open="true"
       sodipodi:arc-type="arc"
       d="m 123.14994,150.64365 a 7.5723133,7.2918768 0 0 1 -7.29954,7.28714 7.5723133,7.2918768 0 0 1 -7.82543,-6.76215 7.5723133,7.2918768 0 0 1 6.73577,-7.77432 7.5723133,7.2918768 0 0 1 8.3107,6.20207" />
    <path
       style="opacity:0.95;fill:#f9f9f9;fill-rule:evenodd;stroke:#1a1a1a;stroke-width:3.04846;stroke-linecap:round;stroke-linejoin:round;stroke-dasharray:none;stroke-opacity:1"
       id="path5"
       sodipodi:type="arc"
       sodipodi:cx="-98.614464"
       sodipodi:cy="-212.4413"
       sodipodi:rx="8.7877092"
       sodipodi:ry="11.77147"
       sodipodi:start="0"
       sodipodi:end="3.1415927"
       sodipodi:open="true"
       sodipodi:arc-type="arc"
       d="m -89.826755,-212.4413 a 8.7877092,11.77147 0 0 1 -4.393854,10.19439 8.7877092,11.77147 0 0 1 -8.787711,0 8.7877092,11.77147 0 0 1 -4.39385,-10.19439"
       transform="matrix(0,-1,-1,0,0,0)" />
    <path
       style="opacity:0.95;fill:#f9f9f9;fill-rule:evenodd;stroke:#1a1a1a;stroke-width:3.7975;stroke-linecap:round;stroke-linejoin:round;stroke-dasharray:none;stroke-opacity:1"
       d="m 213.2306,90.375239 c 0.43568,16.978841 0,16.224231 0,16.224231"
       id="path6" />
    <path
       style="opacity:0.95;fill:none;fill-rule:evenodd;stroke:#050505;stroke-width:3.2;stroke-linecap:round;stroke-linejoin:round;stroke-dasharray:none;stroke-opacity:1"
       d="M 140.35124,162.56136 C 126.08941,154.18981 113.23036,148.46722 93.357911,143.13718"
       id="path7"
       sodipodi:nodetypes="cc" />
    <rect
       style="opacity:0.95;fill:#f9f9f9;fill-rule:evenodd;stroke:#1a1a1a;stroke-width:1.60223;stroke-linecap:round;stroke-linejoin:round;stroke-dasharray:none;stroke-opacity:1"
       id="rect5-8"
       width="31.218765"
       height="6.7325611"
       x="120.88286"
       y="81.697395"
       ry="0"
       rx="0"
       transform="rotate(26.748469)" />
    <path
       style="opacity:0.95;fill:none;fill-rule:evenodd;stroke:#1a1a1a;stroke-width:6.01661;stroke-linecap:round;stroke-linejoin:round;stroke-dasharray:none;stroke-opacity:1"
       d="M 220.75762,158.38682 C 190.7016,89.040321 190.7016,89.040321 190.7016,89.040321"
       id="path2" />
    <rect
       style="opacity:0.95;fill:#f9f9f9;fill-rule:evenodd;stroke:#1a1a1a;stroke-width:3.70623;stroke-linecap:round;stroke-linejoin:round;stroke-dasharray:none"
       id="rect3"
       width="57.983376"
       height="8.4158516"
       x="84.441811"
       y="147.25084"
       rx="6.3114271"
       ry="6.3531427"
       transform="matrix(0.99664504,0.08184524,0,1,0,0)" />
    <path
       style="opacity:0.95;fill:#f9f9f9;fill-rule:evenodd;stroke:#1a1a1a;stroke-width:3.7;stroke-linecap:round;stroke-linejoin:round;stroke-dasharray:none"
       d="m 182.811,86.496251 c 7.49392,0.756307 14.12835,0.97543 15.70958,-1.963699 l 24.03194,39.835028 -13.37186,-0.37404 c -17.81432,13.66111 -23.55811,26.44171 -28.7074,45.72613 l -60.12659,1.30914 -2.71177,-17.95382 52.45881,2.71177 c 9.56593,-15.12702 16.09864,-32.02343 34.03744,-42.26627 -3.96903,-9.94939 -9.90942,-19.307363 -21.32015,-27.024239 z"
       id="path3"
       sodipodi:nodetypes="cccccccccc" />
    <path
       style="opacity:0.95;fill:#f9f9f9;fill-rule:evenodd;stroke:#1a1a1a;stroke-width:3.70001;stroke-linecap:round;stroke-linejoin:round;stroke-dasharray:none"
       d="m 67.326812,112.77241 5.610568,7.01321 c 26.155618,2.97899 38.07052,17.81348 44.04296,33.94394 l 35.6271,1.12211 -17.11223,-30.01654 5.0495,-7.01321 z"
       id="path8"
       sodipodi:nodetypes="ccccccc" />
    <path
       style="opacity:0.95;fill:#f9f9f9;fill-rule:evenodd;stroke:#1a1a1a;stroke-width:3.70001;stroke-linecap:round;stroke-linejoin:round;stroke-dasharray:none"
       d="m 69.009982,104.35656 c 6.247271,-0.0253 17.777299,0.008 23.283855,0 12.653863,3.55458 28.130463,8.56229 46.567713,5.61056 l 2.52475,7.8548 -69.009977,-4.76898 z"
       id="path9"
       sodipodi:nodetypes="cccccc" />
  </g>
</svg>
